<?xml version="1.0" encoding="UTF-8"?>
<svg xmlns="http://www.w3.org/2000/svg" xmlns:xlink="http://www.w3.org/1999/xlink" width="50pt" height="65pt" viewBox="0 0 50 65" version="1.1">
<g id="surface1">
<path style=" stroke:none;fill-rule:nonzero;fill:rgb(100%,100%,100%);fill-opacity:1;" d="M 1.886719 0 C 0.78125 0.00390625 0 0.839844 0 2.226562 L 0 49.9375 C 0 51.785156 1.390625 53.941406 3.078125 54.726562 L 23.292969 64.082031 C 24.980469 64.863281 26.371094 63.988281 26.371094 62.144531 L 26.371094 54.046875 L 35.152344 54.046875 C 36.984375 54.046875 38.492188 52.554688 38.492188 50.746094 L 38.492188 39.132812 C 38.496094 38.78125 38.308594 38.460938 38.007812 38.285156 C 37.707031 38.113281 37.328125 38.113281 37.023438 38.285156 C 36.722656 38.460938 36.535156 38.78125 36.539062 39.132812 L 36.539062 50.746094 C 36.539062 51.519531 35.9375 52.113281 35.152344 52.113281 L 26.417969 52.113281 L 26.417969 14 C 26.417969 12.230469 25.324219 10.535156 23.703125 9.785156 L 6.742188 1.929688 L 35.152344 1.929688 C 35.9375 1.929688 36.539062 2.527344 36.539062 3.300781 L 36.539062 15.316406 C 36.535156 15.660156 36.722656 15.984375 37.023438 16.160156 C 37.328125 16.335938 37.707031 16.335938 38.007812 16.160156 C 38.308594 15.984375 38.496094 15.660156 38.492188 15.316406 L 38.492188 3.300781 C 38.492188 1.488281 36.984375 0 35.152344 0 L 3.449219 0 C 3.15625 0 2.878906 0.0390625 2.605469 0.105469 C 2.355469 0.0351562 2.117188 0 1.886719 0 Z M 2.597656 2.191406 C 2.640625 2.195312 2.683594 2.199219 2.730469 2.207031 L 22.875 11.53125 C 23.636719 11.886719 24.464844 13.167969 24.464844 14 L 24.464844 53.082031 C 24.464844 53.179688 24.480469 53.277344 24.511719 53.371094 L 24.511719 61.285156 C 24.511719 62.042969 23.984375 62.375 23.292969 62.054688 L 3.078125 52.699219 C 2.386719 52.375 1.859375 51.554688 1.859375 50.800781 L 1.859375 3.082031 C 1.859375 2.515625 2.15625 2.1875 2.597656 2.191406 Z M 41.007812 18.464844 C 40.976562 18.464844 40.949219 18.464844 40.914062 18.472656 C 40.882812 18.476562 40.851562 18.480469 40.820312 18.484375 C 40.757812 18.503906 40.695312 18.523438 40.640625 18.546875 C 40.464844 18.628906 40.324219 18.757812 40.222656 18.917969 C 40.140625 19.050781 40.089844 19.207031 40.085938 19.367188 C 40.074219 19.621094 40.167969 19.867188 40.34375 20.054688 C 40.347656 20.058594 40.351562 20.058594 40.355469 20.0625 L 46.523438 26.167969 L 30.578125 26.167969 C 30.546875 26.167969 30.515625 26.171875 30.480469 26.175781 C 30.453125 26.175781 30.417969 26.179688 30.390625 26.1875 C 30.296875 26.207031 30.207031 26.238281 30.125 26.289062 C 30.097656 26.304688 30.066406 26.320312 30.046875 26.339844 C 30.015625 26.359375 29.988281 26.375 29.96875 26.394531 C 29.921875 26.441406 29.875 26.480469 29.835938 26.535156 C 29.796875 26.582031 29.765625 26.636719 29.738281 26.691406 C 29.695312 26.78125 29.664062 26.871094 29.648438 26.960938 C 29.636719 27.054688 29.636719 27.148438 29.648438 27.242188 C 29.652344 27.277344 29.660156 27.304688 29.667969 27.335938 C 29.675781 27.367188 29.683594 27.398438 29.695312 27.425781 C 29.707031 27.457031 29.714844 27.484375 29.734375 27.515625 C 29.757812 27.570312 29.792969 27.621094 29.832031 27.675781 C 29.851562 27.699219 29.867188 27.726562 29.894531 27.746094 C 29.953125 27.816406 30.027344 27.878906 30.109375 27.921875 C 30.222656 27.988281 30.34375 28.03125 30.472656 28.042969 C 30.503906 28.050781 30.542969 28.054688 30.578125 28.054688 L 46.523438 28.054688 L 40.355469 34.152344 C 40.308594 34.199219 40.265625 34.25 40.238281 34.300781 C 40.21875 34.328125 40.207031 34.359375 40.1875 34.382812 C 40.128906 34.496094 40.09375 34.621094 40.085938 34.746094 C 40.085938 34.808594 40.085938 34.871094 40.089844 34.929688 C 40.121094 35.15625 40.226562 35.355469 40.390625 35.507812 C 40.417969 35.53125 40.441406 35.550781 40.464844 35.566406 C 40.621094 35.683594 40.808594 35.746094 41 35.753906 C 41.03125 35.757812 41.0625 35.753906 41.089844 35.753906 C 41.25 35.746094 41.40625 35.695312 41.542969 35.613281 C 41.601562 35.574219 41.652344 35.535156 41.703125 35.488281 L 49.488281 27.785156 C 49.515625 27.761719 49.535156 27.738281 49.554688 27.710938 C 49.59375 27.664062 49.628906 27.613281 49.660156 27.558594 C 49.671875 27.527344 49.683594 27.5 49.699219 27.46875 C 49.707031 27.441406 49.714844 27.410156 49.726562 27.382812 C 49.75 27.296875 49.757812 27.21875 49.757812 27.136719 C 49.757812 27.128906 49.757812 27.125 49.757812 27.125 C 49.757812 27.113281 49.757812 27.109375 49.757812 27.101562 C 49.757812 27.097656 49.757812 27.09375 49.757812 27.089844 C 49.757812 27.074219 49.757812 27.050781 49.757812 27.035156 C 49.757812 27.007812 49.753906 26.972656 49.75 26.941406 C 49.742188 26.914062 49.738281 26.878906 49.730469 26.851562 C 49.714844 26.789062 49.691406 26.730469 49.664062 26.671875 C 49.636719 26.617188 49.601562 26.566406 49.558594 26.515625 C 49.542969 26.484375 49.515625 26.460938 49.488281 26.433594 L 41.703125 18.730469 C 41.679688 18.710938 41.65625 18.691406 41.628906 18.667969 C 41.53125 18.589844 41.417969 18.53125 41.292969 18.5 C 41.199219 18.472656 41.105469 18.460938 41.007812 18.464844 Z M 19.972656 33.464844 C 19.074219 33.464844 18.363281 34.039062 17.941406 34.71875 C 17.519531 35.394531 17.300781 36.230469 17.300781 37.136719 C 17.300781 38.046875 17.519531 38.882812 17.941406 39.558594 C 18.363281 40.238281 19.074219 40.8125 19.972656 40.8125 C 20.863281 40.8125 21.574219 40.238281 21.996094 39.558594 C 22.414062 38.882812 22.636719 38.046875 22.636719 37.136719 C 22.636719 36.230469 22.414062 35.394531 21.996094 34.71875 C 21.574219 34.039062 20.863281 33.464844 19.972656 33.464844 Z M 19.972656 35.398438 C 20.007812 35.398438 20.144531 35.429688 20.335938 35.730469 C 20.523438 36.035156 20.683594 36.554688 20.683594 37.136719 C 20.683594 37.726562 20.523438 38.242188 20.335938 38.546875 C 20.144531 38.847656 20.007812 38.878906 19.972656 38.878906 C 19.929688 38.878906 19.792969 38.847656 19.601562 38.546875 C 19.414062 38.242188 19.25 37.726562 19.25 37.136719 C 19.25 36.554688 19.414062 36.035156 19.601562 35.730469 C 19.792969 35.429688 19.929688 35.398438 19.972656 35.398438 Z M 19.972656 35.398438 "/>
</g>
</svg>
